<svg xmlns="http://www.w3.org/2000/svg" viewBox="0 0 192 192" width="192" height="192">
  <rect width="100%" height="100%" rx="32" fill="#0B0B10" fill-opacity="0.85" />
  <circle cx="96" cy="96" r="68" fill="#0B0B10" fill-opacity="0.35" stroke="#FF5F1F" stroke-width="3" />
  <g transform="translate(0,12)" fill="none" stroke="#FF8A2B" stroke-width="5" stroke-linecap="round" stroke-linejoin="round">
    <path d="M96 60c0 10-10 16-10 28 0 24 34 32 34 48 0-16 34-24 34-48 0-12-10-18-16-28-6 18-16 28-34 0z" fill="#FF8A2B" stroke="none"/>
    <path d="M96 76c-10 16-24 24-24 44 0 32 48 44 48 64 0-20 48-24 48-64 0-20-12-32-24-44-12 22-24 34-48 0z" fill="#FF4D00" opacity="0.95" stroke="none"/>
  </g>
</svg>