<svg xmlns="http://www.w3.org/2000/svg" viewBox="0 0 512 512" width="512" height="512">
  <rect width="100%" height="100%" rx="96" fill="#0B0B10" fill-opacity="0.85" />
  <circle cx="256" cy="256" r="180" fill="#0B0B10" fill-opacity="0.35" stroke="#FF5F1F" stroke-width="8" />
  <g transform="translate(0,30)" fill="none" stroke="#FF8A2B" stroke-width="14" stroke-linecap="round" stroke-linejoin="round">
    <path d="M256 140c0 28-28 44-28 74 0 60 84 80 84 120 0-40 84-60 84-120 0-28-20-42-32-74-12 46-28 74-84 0z" fill="#FF8A2B" stroke="none"/>
    <path d="M256 188c-24 42-56 64-56 112 0 96 128 132 128 200 0-76 128-112 128-200 0-48-36-72-64-112-28 64-64 96-128 0z" fill="#FF4D00" opacity="0.95" stroke="none"/>
  </g>
</svg>